<?xml version="1.0" encoding="UTF-8"?>
<svg id="Layer_2" data-name="Layer 2" xmlns="http://www.w3.org/2000/svg" viewBox="0 0 45 45">
  <g id="Layer_1-2" data-name="Layer 1">
    <g>
      <path d="M25.76,29.49h5.13c.28,0,.5-.22.5-.5v-5.98c0-.28-.22-.5-.5-.5h-5.13v-5.93c.05-.22.72-.83.97-.87h4.96c.28,0,.5-.22.5-.5v-6.99c0-.13-.05-.26-.15-.36-.09-.09-.22-.14-.35-.14h-.01c-.31,0-.62.01-.94.01-.48,0-.97,0-1.46-.02-.5,0-.99-.02-1.49-.02-2.58,0-5.29.23-7.56,1.9-2.42,1.78-2.58,4.19-2.76,6.75-.02.33-.05.66-.07.99v5.08s-5.34.09-5.34.09c-.27,0-.49.23-.49.5v5.98c0,.28.22.5.5.5h4.93v14.6c-5.91-1.35-10.95-5.34-13.9-11.02C-.06,26.94-.35,19.63,2.36,13.52,5.97,5.37,13.44.5,22.34.5s19.64,5.67,21.82,18.12c1.06,6.08-.42,12.38-4.07,17.27-3.5,4.7-8.57,7.71-14.32,8.53v-14.94Z" fill="#e8504b"/>
      <path d="M22.34,1h0c8.78,0,19.2,5.54,21.32,17.71,1.05,6.03-.36,12.03-3.98,16.89-3.3,4.43-8.04,7.33-13.42,8.25v-13.85h4.63c.55,0,1-.45,1-1v-5.98c0-.55-.45-1-1-1h-4.63v-5.3c.11-.16.4-.42.57-.51h4.87c.55,0,1-.45,1-1v-6.99c0-.27-.11-.53-.3-.72-.19-.18-.44-.28-.7-.28,0,0-.02,0-.03,0-.3,0-.61.01-.92.01-.48,0-.96,0-1.45-.02-.5,0-1-.02-1.5-.02-2.67,0-5.47.24-7.85,2-2.6,1.91-2.78,4.56-2.96,7.12-.02.32-.04.65-.07.98,0,.03,0,.06,0,.08v4.54s-4.85.08-4.85.08c-.55,0-.98.45-.98,1v5.98c0,.55.45,1,1,1h4.43v13.46c-5.5-1.45-10.18-5.26-12.96-10.61C.45,26.84.17,19.7,2.82,13.73,6.35,5.76,13.65,1,22.34,1M26.87,16.19h0,0M22.34,0C14.14,0,5.91,4.27,1.9,13.32c-5.66,12.77,1.81,28.63,15.57,31.37.04,0,.07.01.09.01.14,0-.04-.14-.04-.16v-15.4s.13-.08.1-.15h-5.53v-5.98l5.84-.1v-5.53c.23-2.86.1-5.53,2.62-7.38,2.15-1.58,4.69-1.8,7.26-1.8.99,0,1.98.03,2.95.03.32,0,.63,0,.95-.01v6.99h-4.98c-.44,0-1.46.9-1.46,1.37v6.43h5.63v5.98h-5.63v16.01c12.83-1.5,21.63-13.61,19.39-26.46C42.54,6.5,32.46,0,22.34,0h0Z" fill="#c2052b"/>
    </g>
  </g>
</svg>