<?xml version="1.0" encoding="UTF-8"?>
<svg id="Layer_2" data-name="Layer 2" xmlns="http://www.w3.org/2000/svg" viewBox="0 0 45 45.08">
  <g id="Layer_1-2" data-name="Layer 1">
    <g>
      <path d="M22.48,44.58c-1.99,0-3.98-.27-5.91-.8.85-1.43,2.05-3.65,2.52-5.49l1.14-4.34c1.12,1.16,3.04,1.96,4.93,1.96,6.94,0,12.18-6.24,12.18-14.51,0-7.7-6.18-13.51-14.38-13.51-10.57,0-15.38,7.32-15.38,14.12,0,3.4,1.82,7.76,4.87,9.18.21.1.41.15.58.15.21,0,.71-.08.88-.79l.2-.79c.15-.59.33-1.33.43-1.76.1-.4.02-.77-.26-1.09-.91-1.11-1.55-3.09-1.55-4.81,0-4.49,3.39-9.27,9.68-9.27,5.25,0,8.92,3.56,8.92,8.66,0,5.68-2.77,9.81-6.58,9.81-.96,0-1.83-.4-2.37-1.09-.52-.66-.69-1.5-.48-2.37.23-.94.53-1.92.82-2.86.55-1.77,1.07-3.45,1.07-4.76,0-2.23-1.32-3.67-3.36-3.67-2.57,0-4.58,2.62-4.58,5.97,0,1.69.46,2.94.64,3.38-.3,1.26-2.22,9.41-2.59,11.03-.41,1.81-.32,4.17-.17,5.8C5.66,39.22.5,31.38.5,22.52.5,10.38,10.38.5,22.52.5c5.89,0,11.42,2.29,15.57,6.46,4.15,4.16,6.43,9.7,6.41,15.59,0,12.14-9.88,22.02-22.02,22.02Z" fill="#e8504b"/>
      <path d="M22.52,1c5.75,0,11.16,2.24,15.22,6.31,4.06,4.07,6.28,9.48,6.27,15.24,0,11.87-9.65,21.52-21.52,21.52-1.73,0-3.46-.21-5.14-.62.82-1.44,1.81-3.38,2.24-5.04l.93-3.55c1.22.94,2.93,1.54,4.66,1.54,7.23,0,12.68-6.45,12.68-15.01,0-7.99-6.4-14.01-14.88-14.01-10.91,0-15.88,7.58-15.88,14.62,0,3.5,1.81,8.07,5.15,9.63.28.14.55.2.8.2.53,0,1.17-.31,1.36-1.17.03-.12.11-.43.2-.8.15-.59.33-1.33.43-1.75.18-.71-.1-1.23-.35-1.53-.72-.87-1.44-2.7-1.44-4.5,0-5.7,4.73-8.77,9.18-8.77,4.95,0,8.42,3.35,8.42,8.16,0,5.39-2.56,9.31-6.08,9.31-.81,0-1.53-.33-1.98-.9-.42-.53-.56-1.22-.38-1.94.22-.92.52-1.89.81-2.83.56-1.81,1.09-3.52,1.09-4.91,0-2.49-1.55-4.17-3.85-4.17-2.85,0-5.08,2.84-5.08,6.47,0,1.6.39,2.84.62,3.42-.39,1.66-2.19,9.31-2.56,10.89-.36,1.57-.35,3.53-.25,5.1C5.72,38.33,1,30.89,1,22.52,1,10.65,10.65,1,22.52,1M22.52,0C10.08,0,0,10.08,0,22.52c0,9.54,5.93,17.7,14.31,20.98-.2-1.78-.37-4.52.07-6.47.41-1.76,2.63-11.2,2.63-11.2,0,0-.67-1.35-.67-3.34,0-3.13,1.82-5.47,4.08-5.47,1.93,0,2.85,1.45,2.85,3.17,0,1.93-1.22,4.82-1.87,7.51-.54,2.24,1.13,4.08,3.34,4.08,4,0,7.08-4.23,7.08-10.31,0-5.39-3.87-9.16-9.42-9.16-6.41,0-10.18,4.8-10.18,9.77,0,1.93.74,4,1.67,5.13.19.22.21.42.15.65-.17.7-.56,2.24-.63,2.56-.06.27-.19.4-.39.4-.1,0-.23-.03-.37-.1-2.82-1.32-4.58-5.41-4.58-8.73,0-7.1,5.15-13.62,14.88-13.62,7.8,0,13.88,5.56,13.88,13.01s-4.89,14.01-11.68,14.01c-2.28,0-4.43-1.19-5.15-2.6,0,0-1.13,4.3-1.41,5.36-.5,1.96-1.87,4.41-2.8,5.91,2.11.65,4.34,1,6.67,1,12.44,0,22.52-10.08,22.52-22.52.04-12.47-10.04-22.56-22.48-22.56h0Z" fill="#c2052b"/>
    </g>
  </g>
</svg>