<?xml version="1.0" encoding="UTF-8"?>
<svg id="Layer_2" data-name="Layer 2" xmlns="http://www.w3.org/2000/svg" viewBox="0 0 46 46">
  <g id="Layer_1-2" data-name="Layer 1">
    <g id="_2tprRT.tif" data-name="2tprRT.tif">
      <g>
        <g>
          <path d="M23.01,45c-8.15,0-15.33-4.2-19.21-11.22C-.03,26.85.08,18.64,4.09,11.82,8.08,5.06,15.13,1.01,22.96,1c8.14,0,15.33,4.26,19.26,11.39,3.95,7.17,3.69,15.58-.68,22.49-4.01,6.34-10.94,10.12-18.53,10.12h0ZM9.33,26.31c0,2.42.84,4.52,2.53,6.26,2.98,3.07,7.82,4.17,11.35,4.17.58,0,1.15-.03,1.7-.08,6.13-.6,12.1-4.34,11.85-10.34,1.49-1.01,2.11-2.54,1.67-4.14-.46-1.66-2-2.87-3.65-2.87-.79,0-1.59.27-2.33.78-2-1.25-4.18-2.09-6.33-2.43-.1-.02-.34-.04-.62-.06-.25-.02-.69-.06-1.01-.09l1.21-5.9,3.89.85c.39,1.22,1.5,2.08,2.76,2.08.63,0,1.23-.22,1.74-.64.93-.77,1.27-1.93.87-3.04-.41-1.15-1.48-1.89-2.71-1.89-.21,0-.43.02-.66.07-.49.1-.85.43-1.14.71-.1.09-.23.22-.31.26-.7-.1-1.44-.28-2.16-.45-.92-.22-1.87-.45-2.78-.53-.2-.02-.34-.03-.47-.03-.46,0-.81.16-1.03.49-.04.05-.06.11-.07.17l-1.73,7.68c-2.81.12-5.6,1.01-8.32,2.64-.09-.08-.17-.15-.28-.2-.69-.36-1.39-.54-2.07-.54-1.69,0-3.13,1.14-3.59,2.83-.35,1.31-.08,3.09,1.7,4.27Z" fill="#e8504b"/>
          <path d="M23,.5v1c7.92,0,14.94,4.16,18.78,11.13,3.86,7.01,3.61,15.23-.67,21.98-3.92,6.19-10.69,9.89-18.11,9.89-7.96,0-14.98-4.1-18.77-10.96-3.74-6.78-3.63-14.8.29-21.46C8.42,5.47,15.31,1.51,22.97,1.5l.04-1M29.98,9.46c-.61-.1-1.24-.25-1.9-.41-.94-.23-1.91-.46-2.85-.55h-.07c-.15-.02-.31-.04-.46-.04-.79,0-1.22.39-1.44.71-.07.1-.12.22-.15.34l-1.64,7.31c-2.66.18-5.31,1.02-7.88,2.52-.03-.02-.05-.03-.08-.04-.76-.39-1.54-.59-2.3-.59-1.92,0-3.56,1.29-4.07,3.2-.48,1.76.18,3.54,1.69,4.66.06,2.42.97,4.6,2.66,6.35,3.09,3.19,8.07,4.32,11.7,4.32.59,0,1.18-.03,1.75-.08,6.28-.61,12.39-4.43,12.31-10.59,1.49-1.13,2.12-2.82,1.64-4.52-.53-1.91-2.23-3.24-4.13-3.24h0c-.8,0-1.59.24-2.34.69-1.98-1.19-4.13-2-6.24-2.34-.11-.02-.36-.04-.66-.07-.12,0-.28-.02-.45-.04l1-4.86,3.12.69c.53,1.28,1.76,2.15,3.14,2.15.75,0,1.46-.26,2.06-.75,1.1-.91,1.49-2.28,1.03-3.59-.48-1.35-1.73-2.22-3.18-2.22-.25,0-.5.03-.75.08-.63.12-1.07.53-1.39.83-.03.03-.07.07-.11.1M23,.5h-.04C5.85.53-4.95,18.98,3.36,34.02c4.21,7.62,11.92,11.48,19.65,11.48,7.28,0,14.57-3.42,18.96-10.35C51.47,20.13,40.7.5,23,.5h0ZM30.16,10.5c.41-.02.87-.86,1.52-.99.19-.04.38-.06.56-.06,2.13,0,3.26,2.61,1.52,4.04-.44.36-.94.52-1.42.52-1.08,0-2.11-.8-2.35-2l-4.68-1.03-1.41,6.86c.04.15,1.81.23,2.13.29,2.3.37,4.5,1.29,6.43,2.55.78-.62,1.58-.88,2.31-.88,2.93,0,4.91,4.18,1.47,6.25.48,6.28-6.01,9.58-11.38,10.11-.54.05-1.09.08-1.65.08-6.15,0-13.59-3.17-13.37-10.2-3.32-1.93-1.73-6.32,1.38-6.32.57,0,1.19.15,1.84.48.19.1.29.32.49.32.02,0,.04,0,.06,0,2.62-1.61,5.56-2.65,8.67-2.71l1.81-8.06c.15-.22.37-.27.61-.27.14,0,.29.02.43.03,1.62.15,3.39.78,5.02,1h0Z" fill="#c2052b"/>
        </g>
        <g>
          <path d="M28.26,27.12c-.36,0-.72-.12-1.07-.36-.7-.48-.79-1.25-.64-1.82.15-.58.62-1.23,1.48-1.3.04,0,.09,0,.13,0,.66,0,1.34.45,1.57,1.04.24.61.19,1.25-.14,1.73-.3.45-.8.71-1.33.71Z" fill="#e8504b"/>
          <path d="M28.16,24.14c.46,0,.95.32,1.11.72.18.46.15.92-.09,1.27-.21.31-.55.49-.92.49-.26,0-.53-.09-.79-.27-.61-.42-.49-1.08-.44-1.28.11-.42.44-.88,1.04-.93.03,0,.06,0,.08,0M28.16,23.14c-.06,0-.12,0-.17,0-2,.18-2.75,2.89-1.07,4.03.45.31.91.44,1.35.44,1.44,0,2.59-1.48,1.94-3.13-.31-.79-1.18-1.35-2.04-1.35h0Z" fill="#c2052b"/>
        </g>
        <g>
          <path d="M17.75,26.98c-.28,0-.55-.06-.83-.18-.69-.31-.92-1.11-.83-1.77.08-.59.42-1.26,1.16-1.39.17-.03.34-.04.5-.04.81,0,1.35.38,1.6,1.11.19.57.12,1.13-.19,1.57-.32.44-.84.7-1.4.7Z" fill="#e8504b"/>
          <path d="M17.75,24.1c.76,0,1,.41,1.13.78.18.53.03.9-.12,1.12-.22.31-.59.5-1,.5-.21,0-.41-.05-.62-.14-.46-.21-.61-.78-.54-1.25.02-.14.14-.85.74-.96.15-.02.29-.04.42-.04M17.75,23.1c-.19,0-.38.02-.59.05-1.87.32-2.17,3.32-.44,4.1.35.16.7.23,1.03.23,1.45,0,2.61-1.35,2.07-2.93-.34-1.01-1.12-1.45-2.07-1.45h0Z" fill="#c2052b"/>
        </g>
        <g>
          <path d="M23.01,32.69c-1.24,0-2.45-.21-3.4-.59-.34-.13-1.54-.76-1.73-.92,0,0,0-.06,0-.11.2.02.41.17.59.3.17.13.35.25.52.34,1.14.58,2.6.89,4.11.89,1.4,0,2.74-.28,3.78-.79.16-.08.35-.21.54-.34.23-.16.58-.41.75-.41,0,0,0,0,0,0-.17.22-.77.62-1.52.94-1.01.44-2.32.68-3.67.68Z" fill="#e8504b"/>
          <path d="M28.24,31.55h0,0M17.89,30.55c-.09,0-.18.02-.28.06-.28.15-.28.68-.09.91.17.21,1.58.92,1.9,1.05,1.04.41,2.31.62,3.58.62,1.37,0,2.75-.24,3.86-.72.47-.21,2.6-1.21,1.59-1.83-.09-.05-.18-.08-.28-.08-.49,0-1.09.6-1.51.8-1.02.5-2.29.74-3.56.74-1.39,0-2.79-.29-3.88-.84-.44-.22-.86-.71-1.33-.71h0Z" fill="#c2052b"/>
        </g>
      </g>
    </g>
  </g>
</svg>