<?xml version="1.0" encoding="UTF-8"?>
<svg id="Layer_2" data-name="Layer 2" xmlns="http://www.w3.org/2000/svg" viewBox="0 0 46 46">
  <g id="Layer_1-2" data-name="Layer 1">
    <g>
      <path d="M23,45c-12.13,0-22-9.87-22-22S10.87,1,23,1s22,9.87,22,22-9.87,22-22,22ZM23.51,16.24c-3.8.17-8.92.92-11.75,4.85-2.08,2.88-2.41,7.01-2.48,9.87v.18c-.03.59-.05,1.32,0,1.84.08.75.71,1.32,1.45,1.32.28,0,.56-.08.8-.24.34-.22.66-.83,1.11-1.75.12-.25.23-.46.31-.6.35-.6.7-1.1,1.07-1.54,2.23-2.66,5.84-3.26,9.49-3.45v6.33c0,.23.22.57.26.64.29.39.72.61,1.19.61.29,0,.57-.08.8-.24l12.11-11.13c.09-.1.16-.16.22-.22.22-.21.46-.45.62-.82.02-.06.04-.12.04-.19v-.48c0-.07-.01-.13-.04-.19-.15-.36-.4-.6-.62-.82-.06-.06-.13-.12-.19-.19-2.06-1.79-4.04-3.67-5.96-5.49-1.83-1.73-3.72-3.52-5.65-5.21-.26-.23-.53-.46-.88-.63-.07-.03-.14-.05-.22-.05h-.47c-.05,0-.1,0-.15.02-.37.12-1.07.64-1.07,1.22v6.37Z" fill="#e8504b"/>
      <path d="M23,1.5c11.86,0,21.5,9.64,21.5,21.5s-9.64,21.5-21.5,21.5S1.5,34.86,1.5,23,11.14,1.5,23,1.5M23.01,15.76c-3.85.21-8.82,1.09-11.65,5.03-2.16,2.99-2.5,7.22-2.58,10.14v.18c-.03.61-.06,1.37,0,1.93.11,1,.95,1.76,1.95,1.76.38,0,.75-.11,1.06-.32.44-.28.75-.84,1.3-1.95.11-.23.21-.44.29-.56.34-.57.67-1.06,1.03-1.48,2-2.39,5.26-3.03,8.6-3.24v5.8c0,.33.19.68.37.95.37.5.96.8,1.58.8.39,0,.76-.11,1.08-.33.04-.03.08-.06.12-.1l12.05-11.08s.04-.04.06-.06c.06-.06.11-.12.17-.17.23-.22.54-.52.73-.99.05-.12.07-.25.07-.38v-.48c0-.13-.03-.26-.08-.38-.19-.46-.49-.75-.73-.98-.06-.06-.12-.11-.17-.17-.02-.03-.05-.05-.08-.07-2.01-1.75-3.99-3.63-5.91-5.44-1.83-1.74-3.73-3.53-5.66-5.23-.27-.24-.58-.51-.99-.71-.14-.07-.28-.1-.43-.1h-.47c-.1,0-.21.02-.3.05-.49.16-1.42.82-1.42,1.69v5.89M23,.5C10.57.5.5,10.58.5,23s10.07,22.5,22.5,22.5,22.5-10.07,22.5-22.5S35.42.5,23,.5h0ZM10.73,33.8c-.47,0-.9-.35-.95-.87-.06-.54-.02-1.39,0-1.96.08-3.15.5-6.97,2.39-9.59,2.67-3.72,7.54-4.52,11.84-4.66v-6.85c0-.27.47-.66.72-.74h.47c.29.14.53.35.77.56,3.94,3.46,7.62,7.23,11.57,10.67.26.28.56.5.71.86v.48c-.15.37-.45.58-.71.86l-12.05,11.08c-.16.11-.34.16-.53.16-.3,0-.59-.14-.77-.39-.04-.06-.18-.32-.18-.36v-6.85c-3.7.15-7.85.64-10.37,3.65-.42.5-.79,1.05-1.12,1.61-.28.48-.9,1.95-1.26,2.18-.17.11-.35.16-.53.16h0Z" fill="#c2052b"/>
    </g>
  </g>
</svg>