<svg xmlns="http://www.w3.org/2000/svg" data-name="Layer 2" viewBox="0 0 183.53 42.06"><g data-name="Layer 1"><g fill="#c2052b" stroke="#c2052b" stroke-linecap="round" stroke-linejoin="round" stroke-width=".5"><path d="M59.74 32.51c-.86 0-1.69-.1-2.49-.3-.8-.2-1.55-.52-2.25-.96-.12-.1-.24-.21-.36-.33-.12-.12-.21-.25-.27-.39-.2-.54-.34-1.2-.41-1.98-.07-.78-.1-1.57-.07-2.37 0-.14.06-.24.18-.3s.26-.09.42-.09c.2 0 .33.03.41.08.07.05.14.14.23.28.44 1.5 1.09 2.71 1.96 3.63s1.88 1.38 3.04 1.38c.64 0 1.17-.15 1.58-.44.41-.29.72-.66.94-1.11.22-.45.33-.91.33-1.37 0-.64-.12-1.18-.38-1.62-.25-.44-.63-.84-1.12-1.2-.5-.36-1.14-.75-1.92-1.17-.84-.48-1.65-.98-2.43-1.51a6.82 6.82 0 0 1-1.92-1.94c-.5-.76-.75-1.71-.75-2.85s.3-2.2.92-3.06c.61-.86 1.44-1.53 2.5-2.01 1.06-.48 2.25-.72 3.57-.72.76 0 1.49.08 2.18.24s1.25.32 1.67.48c.24.1.41.21.52.33.11.12.2.33.29.63.1.42.18.93.25 1.53s.1 1.26.1 1.98c0 .26-.18.39-.54.39-.18 0-.35-.04-.5-.13-.15-.09-.25-.21-.28-.35-.34-1.2-.84-2.11-1.5-2.73-.66-.62-1.47-.93-2.43-.93-.6 0-1.11.1-1.53.3-.42.2-.73.5-.94.9-.21.4-.31.9-.31 1.5 0 .48.17.93.5 1.33.33.41.8.83 1.42 1.25.62.42 1.33.87 2.13 1.35 1.08.64 1.94 1.27 2.58 1.89s1.1 1.28 1.4 1.96c.29.69.44 1.49.44 2.38 0 1.36-.3 2.49-.88 3.39-.59.9-1.42 1.56-2.49 2-1.07.43-2.33.64-3.77.64ZM69.07 39.95c-.14 0-.28-.04-.41-.11s-.19-.17-.19-.31c0-.16.06-.29.19-.38.13-.09.29-.17.5-.23.42-.14.71-.29.89-.43.17-.15.25-.39.25-.71V23.41c0-.26-.05-.51-.15-.75-.1-.24-.24-.46-.42-.65s-.41-.3-.69-.34a.526.526 0 0 1-.27-.17c-.06-.07-.09-.19-.09-.38 0-.16.03-.28.09-.36.06-.08.14-.13.24-.15.7-.16 1.45-.37 2.25-.63s1.49-.53 2.07-.81c.08-.04.17-.08.26-.13s.17-.08.25-.08c.12 0 .19.04.23.11.03.07.04.16.04.25 0 .16-.03.42-.08.79-.05.37-.07.69-.07.95 0 .2.02.32.06.36.2-.2.56-.47 1.07-.81a9.25 9.25 0 0 1 1.75-.9c.66-.26 1.3-.39 1.92-.39 1.08 0 2 .29 2.75.86.75.57 1.32 1.3 1.73 2.19.4.89.6 1.83.6 2.8s-.18 1.85-.52 2.73c-.35.88-.85 1.67-1.48 2.38-.64.71-1.38 1.28-2.22 1.7-.84.42-1.74.63-2.7.63-.22 0-.49-.03-.79-.09-.31-.06-.62-.14-.93-.24-.31-.1-.6-.2-.85-.3-.02 0-.04.03-.06.09-.02.06-.04.13-.04.21-.01.08-.02.16-.02.24v4.98c0 .26.06.48.19.66s.32.33.56.44c.24.11.53.21.87.31.2.06.36.13.48.23.12.09.18.21.18.38 0 .12-.06.22-.17.3-.11.08-.23.12-.35.12-.6 0-1.23-.03-1.88-.08-.65-.05-1.24-.08-1.75-.08-.34 0-.69 0-1.04.03-.35.02-.71.04-1.08.08-.37.03-.75.04-1.15.04Zm7.74-8.7c.22 0 .48-.08.8-.25.31-.17.62-.45.93-.83s.57-.89.78-1.53c.21-.64.31-1.43.31-2.37 0-1.1-.11-1.97-.33-2.62-.22-.65-.49-1.13-.81-1.46-.32-.32-.65-.53-.98-.64-.33-.11-.61-.17-.85-.17-.36 0-.73.08-1.11.24-.38.16-.69.35-.93.57-.24.22-.36.42-.36.6v.93c0 .46 0 .97-.02 1.53l-.03 1.53c-.01.46-.02.78-.02.96 0 .46.1.96.31 1.51s.51 1.02.9 1.41c.39.39.85.58 1.4.58ZM85.63 32.18c-.12 0-.23-.04-.33-.1a.339.339 0 0 1-.15-.29c0-.16.05-.29.15-.39.1-.1.23-.17.39-.21.52-.12.89-.25 1.1-.4.21-.15.31-.38.31-.71V23.6c0-.68-.1-1.17-.31-1.46-.21-.29-.54-.46-.98-.52a.37.37 0 0 1-.27-.18.687.687 0 0 1-.09-.36c0-.3.11-.47.33-.51 1.04-.2 1.97-.48 2.78-.84.81-.36 1.43-.64 1.88-.84.32-.16.52-.24.6-.24.26 0 .39.12.39.36-.02.34-.06.76-.13 1.28-.07.51-.13 1.04-.18 1.57-.05.54-.08 1.06-.08 1.56v6.63c0 .28.11.5.32.66s.58.32 1.12.48c.16.06.29.13.39.21.1.08.15.2.15.36 0 .26-.15.39-.45.39-.38 0-.78 0-1.2-.03l-1.21-.06c-.39-.02-.77-.03-1.12-.03-.34 0-.7 0-1.06.03-.37.02-.75.04-1.14.08s-.79.04-1.19.04Zm3.3-14.88c-.62 0-1.17-.23-1.64-.69-.47-.46-.71-1.01-.71-1.65 0-.68.23-1.25.71-1.71.47-.46 1.02-.69 1.64-.69.7 0 1.28.23 1.74.69.46.46.69 1.03.69 1.71 0 .64-.23 1.19-.69 1.65-.46.46-1.04.69-1.74.69ZM99.7 32.51c-1.06 0-2.02-.29-2.87-.85-.85-.57-1.52-1.34-2.01-2.31-.49-.97-.73-2.06-.73-3.29 0-1.3.3-2.47.9-3.51s1.4-1.87 2.42-2.49c1.01-.62 2.13-.93 3.38-.93 1.64 0 3 .54 4.08 1.62.18.2.27.38.27.54 0 .12-.09.29-.27.52-.18.23-.38.44-.6.62-.22.18-.41.27-.57.27-.18 0-.35-.06-.52-.17-.17-.11-.33-.24-.5-.38-.52-.44-1.04-.79-1.57-1.07-.53-.27-.99-.41-1.37-.41-.76 0-1.33.32-1.73.95-.39.63-.58 1.66-.58 3.08 0 .98.15 1.83.47 2.54.31.71.75 1.25 1.33 1.63.58.38 1.28.57 2.1.57.6 0 1.12-.09 1.56-.29s.9-.49 1.38-.88c.1-.06.18-.12.25-.18s.15-.09.25-.09c.24 0 .36.16.36.48 0 .08-.01.19-.04.34-.03.15-.1.31-.19.5-.18.4-.52.85-1.04 1.35-.51.5-1.12.93-1.81 1.29-.7.36-1.48.54-2.34.54ZM111.91 32.51c-1.08 0-2.05-.29-2.9-.85-.85-.57-1.52-1.35-2.01-2.34-.49-.99-.73-2.11-.73-3.38s.29-2.4.87-3.43a6.66 6.66 0 0 1 2.37-2.46c1-.61 2.1-.92 3.3-.92.86 0 1.63.19 2.31.55.68.37 1.22.87 1.63 1.49.41.62.62 1.32.62 2.1s-.31 1.14-.93 1.14h-6c-.28 0-.48.08-.61.24-.13.16-.2.43-.2.81 0 .76.17 1.46.51 2.08.34.63.8 1.12 1.38 1.49.58.36 1.25.54 2.01.54.58 0 1.11-.11 1.6-.33.49-.22.97-.52 1.45-.9.08-.06.15-.12.23-.17.07-.05.14-.08.2-.08.2 0 .3.13.3.39 0 .22-.08.52-.24.9-.2.5-.54 1-1.01 1.49s-1.06.88-1.75 1.18c-.7.3-1.5.45-2.4.45Zm-1.47-9.36h1.8c.56 0 .95 0 1.17-.03.22-.02.42-.06.6-.12.1-.04.18-.14.24-.3s.09-.34.09-.54c0-.54-.19-.98-.55-1.32-.37-.34-.83-.51-1.37-.51-.42 0-.81.12-1.19.34-.37.23-.67.53-.9.9s-.33.75-.31 1.15c0 .28.14.42.42.42ZM119.2 32.24c-.18 0-.33-.04-.44-.14-.11-.09-.17-.19-.17-.31 0-.3.22-.51.66-.63.68-.18 1.17-.39 1.46-.63.29-.24.44-.68.44-1.32V15.56c0-.64-.13-1.1-.39-1.39-.26-.29-.74-.5-1.44-.65-.26-.06-.44-.14-.54-.25a.537.537 0 0 1-.15-.38c0-.12.06-.22.18-.31s.27-.14.45-.14c.64 0 1.17.02 1.59.06.42.04.81.08 1.19.1.37.03.81.04 1.31.04.46 0 .88-.02 1.26-.07s.81-.09 1.28-.14c.47-.04 1.04-.06 1.72-.06 2.38 0 4.19.33 5.42 1s1.85 1.83 1.85 3.46c0 .62-.14 1.21-.42 1.75-.28.55-.64 1-1.08 1.37-.32.28-.66.51-1 .69-.35.18-.75.33-1.19.45-.08.02-.12.07-.12.15s.04.13.12.15c.52.12 1.06.27 1.62.46s1.08.46 1.57.83c.49.36.88.82 1.17 1.39s.44 1.29.44 2.17c0 1.12-.18 2.01-.52 2.66-.35.65-.77 1.15-1.26 1.49-.49.34-.95.62-1.37.84-.66.32-1.41.56-2.25.72s-1.84.24-3 .24c-.66 0-1.33-.02-2-.06-.67-.04-1.38-.06-2.11-.06-.42 0-.88 0-1.38.03-.5.02-1 .04-1.49.08-.49.03-.96.04-1.4.04Zm7.77-11.22c.48 0 .92-.05 1.32-.17.4-.11.81-.32 1.23-.64.14-.14.33-.42.58-.86.25-.43.38-1.05.38-1.88s-.11-1.54-.33-2.1c-.22-.56-.56-.98-1-1.26-.45-.28-1.05-.42-1.79-.42-.56 0-.97.1-1.21.31-.25.21-.38.53-.38.95v5.01c0 .4.14.67.42.83.28.15.54.22.78.22Zm.63 9.54c.6 0 1.17-.18 1.7-.54.53-.36.95-.84 1.26-1.46.31-.61.47-1.3.47-2.08 0-.68-.09-1.25-.26-1.71-.17-.46-.37-.83-.6-1.11-.23-.28-.45-.49-.65-.63-.16-.14-.45-.29-.85-.44-.41-.15-.92-.22-1.52-.22-.34 0-.66.08-.94.25-.29.17-.44.42-.44.73v5.28c0 .66.16 1.15.48 1.46.32.31.77.46 1.35.46ZM143.98 32.51c-1.2 0-2.28-.27-3.24-.81s-1.73-1.29-2.29-2.24c-.57-.95-.85-2.03-.85-3.22 0-.96.18-1.87.54-2.73.36-.86.86-1.62 1.5-2.28.64-.66 1.39-1.18 2.25-1.56s1.78-.57 2.76-.57c1.24 0 2.36.29 3.36.87s1.79 1.35 2.39 2.29c.59.95.88 1.99.88 3.11 0 1.28-.27 2.46-.82 3.55a6.357 6.357 0 0 1-2.43 2.61c-1.07.65-2.42.97-4.04.97Zm.6-1.32c.42 0 .78-.08 1.1-.25.31-.17.56-.42.76-.76.24-.4.41-.95.5-1.63.09-.69.14-1.5.14-2.45 0-1.08-.12-2.04-.36-2.89-.24-.85-.58-1.53-1-2.03-.43-.5-.94-.75-1.52-.75-.32 0-.61.06-.87.17-.26.11-.49.27-.69.46-.34.4-.57.97-.7 1.71s-.2 1.65-.2 2.73c0 .96.12 1.88.38 2.74.25.87.59 1.58 1.02 2.13s.92.82 1.46.82ZM159.07 32.51c-1.2 0-2.28-.27-3.24-.81s-1.73-1.29-2.29-2.24c-.57-.95-.85-2.03-.85-3.22 0-.96.18-1.87.54-2.73.36-.86.86-1.62 1.5-2.28.64-.66 1.39-1.18 2.25-1.56s1.78-.57 2.76-.57c1.24 0 2.36.29 3.36.87s1.79 1.35 2.39 2.29c.59.95.88 1.99.88 3.11 0 1.28-.27 2.46-.82 3.55a6.357 6.357 0 0 1-2.43 2.61c-1.07.65-2.42.97-4.04.97Zm.6-1.32c.42 0 .78-.08 1.1-.25.31-.17.56-.42.76-.76.24-.4.41-.95.5-1.63.09-.69.14-1.5.14-2.45 0-1.08-.12-2.04-.36-2.89-.24-.85-.58-1.53-1-2.03-.43-.5-.94-.75-1.52-.75-.32 0-.61.06-.87.17-.26.11-.49.27-.69.46-.34.4-.57.97-.7 1.71s-.2 1.65-.2 2.73c0 .96.12 1.88.38 2.74.25.87.59 1.58 1.02 2.13s.92.82 1.46.82ZM167.68 32.18c-.4 0-.6-.14-.6-.42 0-.16.06-.29.18-.38.12-.09.29-.17.51-.22.3-.1.56-.21.79-.33s.35-.4.35-.84v-14.4c0-.56-.07-1.04-.21-1.42-.14-.39-.46-.63-.96-.74-.22-.04-.33-.19-.33-.45s.1-.41.3-.45c.5-.1 1.04-.25 1.64-.44.59-.19 1.15-.39 1.69-.6s.96-.37 1.26-.46c.16-.06.29-.09.39-.09.12 0 .2.04.24.11.04.07.06.16.06.25 0 .16-.03.43-.08.81-.05.38-.09.8-.1 1.26l.03 11.22c0 .24.09.36.27.36.06 0 .14-.03.23-.08s.17-.11.26-.17c.74-.64 1.4-1.29 1.98-1.95.58-.66.97-1.14 1.17-1.44.08-.12.14-.22.19-.3.05-.08.08-.15.08-.21 0-.1-.08-.2-.24-.31s-.4-.18-.72-.23c-.24-.04-.36-.15-.36-.33s.08-.29.23-.34.29-.08.44-.08h1.47c.36 0 .83-.01 1.41-.04s1.15-.08 1.71-.13.96-.09 1.2-.09c.22 0 .33.11.33.33 0 .16-.06.29-.18.4-.12.11-.29.19-.51.23-.34.08-.74.22-1.2.42-.46.2-.92.43-1.38.69-.34.18-.71.4-1.1.67a19.38 19.38 0 0 0-2.15 1.72c-.1.1-.15.21-.15.33 0 .06.02.12.06.17.04.05.08.11.12.17.48.62.94 1.23 1.38 1.83.44.6.88 1.17 1.32 1.72.44.55.89 1.1 1.35 1.64.34.36.75.69 1.23.99s.88.51 1.2.63c.16.06.33.13.52.21.19.08.29.2.29.36 0 .28-.22.42-.66.42-1.2 0-2.38-.01-3.52-.04-1.15-.03-2.23-.04-3.23-.04-.4 0-.6-.14-.6-.42 0-.16.06-.28.18-.36.12-.08.28-.16.48-.24.18-.06.3-.13.38-.21.07-.08.11-.17.13-.27 0-.08-.04-.17-.1-.29-.07-.11-.15-.23-.25-.38l-2.91-4.02a.292.292 0 0 0-.15-.06c-.12.02-.18.09-.18.21v3.96c0 .34.07.58.22.74.15.15.38.28.68.38.16.06.3.13.44.22.13.09.19.22.19.38 0 .14-.06.25-.17.33-.11.08-.24.12-.38.12-.4 0-.77-.01-1.1-.04-.33-.03-.64-.05-.94-.08-.3-.02-.63-.03-.99-.03-.34 0-.68 0-1.01.03-.33.02-.67.04-1 .08-.34.03-.71.04-1.11.04Z"/></g><path fill="#e8504b" d="M13.47 40.81c-6.08 0-10.71-1.66-12.7-4.56-.32-.47-.36-1.07-.11-1.57.24-.47.69-.77 1.19-.79h.36c.22 0 .47 0 .76.01.37 0 .79.01 1.26.01 2.04 0 8.25 0 14.13-4 7.23-4.91 9.3-9.54 10.68-12.6.37-.82.69-1.53 1.04-2.08.19-.3.37-.57.53-.83 1.14-1.8 1.82-2.89 3.95-3.46.01 0 .23-.06.23-.06.56-.13 1.11-.2 1.65-.2 2.01 0 3.53.91 3.53 2.11 0 .61-.28 1.08-.51 1.45-.3.48-.29.49-.1.65.34.28.6.32.82.32.2 0 .43-.04.68-.09.33-.06.71-.13 1.16-.13.18 0 .37.01.57.04 1.59.2 2.25 1.52 2.61 2.23.06.12.12.23.17.32l.14.25c.25.45.27.46.53.46.18 0 .44-.04.78-.12.04 0 .11-.02.15-.02.19 0 .37.09.48.24l.06.09c.14.25.14.61 0 1.16-.6 2.53-4.79 11.03-15.75 16.71-5.4 2.8-12.25 4.47-18.32 4.47Z"/><path fill="#c2052b" d="M36.45 11.18c1.73 0 3.03.72 3.03 1.61 0 1.14-1.35 1.73-.43 2.48.41.33.77.43 1.13.43.54 0 1.1-.21 1.84-.21.16 0 .33 0 .5.03 1.58.2 2.06 1.71 2.42 2.31.36.6.45.96 1.1.96.22 0 .51-.04.89-.13h.04c.04 0 .06.02.09.05.58.8-3.4 10.93-15.52 17.2-5.59 2.89-12.3 4.41-18.09 4.41s-10.27-1.4-12.28-4.34c-.46-.67-.01-1.55.69-1.58h.34c.49 0 1.18.02 2.02.02 3.3 0 8.95-.38 14.41-4.09 9.34-6.34 10.29-12.41 11.86-14.83 1.52-2.35 1.97-3.49 4.19-4.08.07-.02.14-.04.22-.05.53-.13 1.05-.18 1.53-.18m.02-1.01c-.58 0-1.18.07-1.76.21l-.12.03-.07.02s-.04 0-.06.01c-2.32.61-3.09 1.83-4.25 3.67-.16.26-.34.53-.53.83-.38.58-.7 1.31-1.08 2.15-1.35 3.01-3.39 7.56-10.5 12.39C12.32 33.4 6.23 33.4 4.23 33.4c-.47 0-.89 0-1.25-.01H1.83c-.68.03-1.3.43-1.62 1.07-.33.66-.28 1.46.14 2.08 2.12 3.08 6.77 4.78 13.11 4.78s13-1.65 18.55-4.53c11.12-5.76 15.38-14.44 16-17.03.11-.47.2-1.05-.05-1.51a.864.864 0 0 0-.1-.16c-.21-.27-.53-.43-.88-.43-.08 0-.2.02-.28.03-.33.08-.52.1-.62.1-.04-.06-.08-.14-.12-.21-.05-.08-.1-.17-.15-.26-.05-.08-.1-.18-.15-.29-.37-.73-1.15-2.26-3-2.5-.21-.03-.42-.04-.63-.04-.49 0-.91.08-1.25.14-.23.04-.44.08-.59.08-.1 0-.21 0-.36-.1.02-.04.04-.07.06-.1.23-.38.59-.95.59-1.71 0-1.51-1.69-2.61-4.03-2.61Z"/><path fill="#ae3a3b" d="M31.56 35.9c-5.45 2.82-11.98 4.34-17.66 4.4 20.64-6.5 28-20.41 28.64-24.78.69.54 2.17 1.89 2.42 2.31.48.8.49 1.17 1.99.82.05-.01.1 0 .13.04.58.8-3.4 10.93-15.52 17.2Z"/><path fill="#6d8758" d="M46.05 19.28c-.85 0-1.13-.49-1.4-.97l-.13-.23c-.06-.1-.13-.23-.2-.38-.33-.65-.79-1.55-1.85-1.69-.16-.02-.3-.03-.44-.03-.36 0-.68.06-.98.11-.29.05-.57.1-.86.1-.53 0-.99-.17-1.45-.54-.88-.72-.41-1.49-.12-1.95.19-.31.36-.59.36-.92 0-.52-1.04-1.11-2.53-1.11-.47 0-.94.06-1.42.17l-.21.05s-.08.01-.12.01a.497.497 0 0 1-.42-.76c.5-.82 1.31-1.86 2.33-2.14.34-.09.65-.14.95-.14.45 0 .83.1 1.26.21.43.11.91.23 1.62.31.09.01.18.02.27.02.81 0 1.66-.38 2.28-1.02.49-.51 1.06-1.4 1.01-2.79-.07-1.7-.7-2.49-1.08-2.96-.25-.31-.56-.7-.3-1.14.33-.57 1.1-1 1.79-1h.15c.53.05 1.09.45 1.56 1.13.77 1.1 1.37 3.06.79 5.28-.33 1.25-.7 2.18-1 2.92-.43 1.08-.69 1.73-.52 2.52.15.67.57 1.18 1.02 1.72.5.6 1.01 1.22 1.22 2.11.17.73-.04 2.55-.05 2.57a.507.507 0 0 1-.49.44c-.06 0-.11 0-.16-.03-.32.08-.61.12-.86.12Z"/><path fill="#c2052b" d="M44.39 1h.1c1.08.1 2.73 2.7 1.91 5.79-.82 3.09-1.88 4.12-1.52 5.68.35 1.56 1.88 2.27 2.25 3.83.14.61-.04 2.28-.05 2.39a.105.105 0 0 0-.09-.05h-.04c-.38.09-.67.13-.89.13-.65 0-.74-.36-1.1-.96-.36-.6-.84-2.1-2.42-2.31-.18-.02-.34-.03-.5-.03-.75 0-1.3.21-1.84.21-.37 0-.73-.1-1.13-.43-.92-.75.43-1.35.43-2.48 0-.89-1.3-1.61-3.03-1.61-.48 0-1 .06-1.53.18-.07.02-.14.04-.22.05.39-.64 1.14-1.68 2.03-1.92.31-.08.57-.12.82-.12.78 0 1.37.35 2.83.51.11.01.22.02.33.02 1.84 0 3.88-1.65 3.78-4.33-.11-2.84-1.7-3.41-1.45-3.83.23-.4.84-.75 1.36-.75M44.39 0c-.87 0-1.8.52-2.22 1.25-.43.74.09 1.39.34 1.71.36.45.92 1.13.97 2.67.04 1.21-.45 1.98-.87 2.42-.53.54-1.24.87-1.91.87-.07 0-.15 0-.22-.01-.67-.07-1.14-.19-1.55-.3-.45-.11-.88-.22-1.39-.22-.34 0-.69.05-1.08.15-1.18.32-2.08 1.46-2.63 2.36-.21.35-.19.79.05 1.11.19.26.49.41.8.41.08 0 .16 0 .24-.03l.12-.03.1-.02c.42-.1.86-.15 1.29-.15 1.26 0 1.97.45 2.03.63 0 .17-.14.38-.29.64-.27.44-.99 1.6.23 2.6.54.44 1.12.65 1.77.65.34 0 .65-.06.95-.11.3-.05.58-.1.89-.1.12 0 .24 0 .37.02.75.1 1.09.67 1.47 1.42.08.16.15.3.22.41.05.08.09.15.13.22.28.49.69 1.22 1.83 1.22.24 0 .52-.03.87-.1.05 0 .1.01.15.01.09 0 .18-.01.27-.04.39-.11.68-.44.73-.84 0-.02.24-1.91.03-2.75-.24-1-.81-1.69-1.32-2.31-.43-.51-.8-.96-.92-1.51-.14-.61.05-1.12.49-2.22.3-.76.68-1.7 1.02-2.98.63-2.39-.03-4.51-.86-5.7-.56-.8-1.24-1.28-1.93-1.34h-.19Z"/><path fill="none" stroke="#c2052b" stroke-linecap="round" stroke-linejoin="round" d="M44.05 19.33c-.06 1.38-1.54 3.22-1.54 3.22M40.8 25.84c-.19 1.04-6.19 6.33-9.04 7.01M20.14 37.09c-.23 0-4.64 1.79-8 1.11"/><path fill="#fd9683" d="M28.66 23.45c.24.12.34.43.3.69s-.2.5-.35.72a25.811 25.811 0 0 1-4.39 4.77c-1.71 1.44-3.64 2.69-5.8 3.26-.23.06-.56.06-.62-.17-.05-.2.15-.36.33-.47 1.62-.94 3.16-2.02 4.59-3.23s2.77-2.56 3.97-4.02c.29-.35.54-.73.87-1.04.28-.27.67-.73 1.11-.52ZM34.97 13.35c.47-.04.94 0 1.4.1.21.05.46.15.51.36.04.14-.02.28-.12.39s-.23.17-.36.22c-.66.29-1.4.42-1.94.9-.32.28-.53.66-.73 1.04-.91 1.65-1.81 3.3-2.72 4.95-.1.18-.2.36-.36.48s-.39.18-.56.08c-.16-.09-.24-.3-.22-.49s.1-.37.18-.54c.95-2.01 1.38-3.64 2.84-6.02.23-.38.39-.82.75-1.09.46-.34 1.07-.36 1.63-.37M9.38 35.21c-.19.01-.33.07-.28.25.03.1.17.14.29.16.66.11 1.33.11 1.98.02.19-.03.37-.06.56-.1.54-.12 1.06-.3 1.55-.53.09-.04.18-.09.23-.16s.07-.17 0-.24c-.07-.08-.2-.08-.31-.07-.34.03-.67.2-1 .31-.37.12-.74.23-1.12.3-.42.08-.85.13-1.28.11-.08 0-.39-.07-.63-.05Z"/><path fill="none" stroke="#c2052b" stroke-linecap="round" stroke-linejoin="round" d="M42.79 12.63c.29.8 1.56 1.2 1.67 2.4M42.96 9.94c-.05.27-.33 1.32-2.12 1.56"/></g></svg>