<?xml version="1.0" encoding="UTF-8"?>
<svg id="Layer_2" data-name="Layer 2" xmlns="http://www.w3.org/2000/svg" viewBox="0 0 46 46">
  <g id="Layer_1-2" data-name="Layer 1">
    <g>
      <g>
        <path d="M23.05,45c-1.06,0-2.13-.08-3.2-.23-9.76-1.39-17.63-9.49-18.71-19.26l-.14-1.59c.01-.25,0-.57,0-.88,0-.33-.01-.66,0-.99C1.47,10.71,10.72,1.47,22.06,1h1.91l1.55.14c9.79,1.09,17.7,8.66,19.21,18.41.99,6.4-.84,12.87-5.03,17.76-4.19,4.89-10.26,7.7-16.65,7.7ZM27.66,36.07c.09.14.25.22.41.22h7.4c.19,0,.36-.1.44-.27s.08-.36-.03-.52l-9.88-14.43,9.01-10.54c.13-.15.16-.36.07-.53-.08-.18-.26-.29-.45-.29h-2.13c-.14,0-.28.06-.38.17l-7.72,8.91-6.07-8.87c-.09-.14-.25-.22-.41-.22h-7.4c-.19,0-.36.1-.44.27-.09.16-.08.36.03.52l9.49,13.9-9.46,11.07c-.13.15-.16.36-.07.53.08.18.26.29.45.29h2.17c.15,0,.29-.06.38-.17l8.08-9.44,6.5,9.4Z" fill="#e8504b"/>
        <path d="M23.93,1.5l1.53.13c9.58,1.06,17.3,8.46,18.78,17.99.97,6.25-.82,12.58-4.92,17.36-4.1,4.78-10.03,7.52-16.27,7.52-1.03,0-2.09-.08-3.12-.22-9.54-1.36-17.23-9.28-18.28-18.8l-.13-1.54c0-.3,0-.6,0-.91,0-.32-.01-.64,0-.96C1.96,10.99,11,1.95,22.04,1.5h1.89M24.46,17.98l-5.7-8.33c-.19-.27-.5-.44-.83-.44h-7.4c-.37,0-.71.21-.88.53-.17.33-.15.72.06,1.03l9.28,13.58-9.21,10.78c-.25.3-.31.71-.15,1.07s.52.58.91.58h2.17c.29,0,.57-.13.76-.35l7.66-8.94,6.14,8.86c.19.27.49.43.82.43h7.4c.37,0,.71-.21.88-.53.17-.33.15-.73-.06-1.03l-9.66-14.11,8.76-10.25c.25-.3.31-.71.15-1.07-.16-.35-.52-.58-.91-.58h-2.13c-.29,0-.57.13-.76.35l-7.3,8.42M23.97.5h-1.93C10.44.98.98,10.44.51,22.03c-.03.64.02,1.29,0,1.93l.14,1.6c1.12,10.1,9.09,18.27,19.13,19.7,1.1.16,2.19.23,3.27.23,13.55,0,24.33-12.14,22.18-26.03C43.69,9.56,35.53,1.74,25.57.64l-1.6-.14h0ZM24.36,19.61l8.15-9.4h2.13l-9.26,10.83,10.09,14.74h-7.4l-6.87-9.93-8.5,9.93h-2.17l9.71-11.36-9.71-14.22h7.4l6.44,9.4h0Z" fill="#c2052b"/>
      </g>
      <g>
        <polygon points="29.18 32.55 14.8 11.99 16.82 11.99 31.21 32.55 29.18 32.55" fill="#e8504b"/>
        <path d="M16.56,12.49l13.69,19.56h-.81L15.76,12.49h.81M17.08,11.49h-3.25l15.08,21.56h3.2l-.05-.14-14.99-21.42h0Z" fill="#c2052b"/>
      </g>
    </g>
  </g>
</svg>